# xmcd
#
# Track frame offsets: 
#        150
#        15239
#        32324
#        50379
#        64989
#        81510
#        99498
#        117550
#        135117
#        148767
#        165706
#
# Disc length: 2409 seconds
#
# Revision: 0
# Processed by: cddbd v1.5.2PL0 Copyright (c) Steve Scherf et al.
# Submitted via: ExactAudioCopy v0.99pb1
#
DISCID=8a09670b
DTITLE=Laura Marie - Drawn
DYEAR=2007
DGENRE=R&B
TTITLE0=Too Deep
TTITLE1=This Time
TTITLE2=Ever Since
TTITLE3=Wait
TTITLE4=Surface
TTITLE5=In Code
TTITLE6=Hanging Around
TTITLE7=On and On
TTITLE8=Kid
TTITLE9=Suedehead
TTITLE10=Good Enough
EXTD=
EXTT0=
EXTT1=
EXTT2=
EXTT3=
EXTT4=
EXTT5=
EXTT6=
EXTT7=
EXTT8=
EXTT9=
EXTT10=
PLAYORDER=
